<svg width="56" height="56" viewBox="0 0 56 56" fill="none" xmlns="http://www.w3.org/2000/svg">
<path d="M43.9228 24.549C43.3103 24.1482 42.5226 23.9552 41.7313 24.0121C40.9399 24.0691 40.209 24.3712 39.6978 24.8528L27.0002 36.9139L14.3023 24.853C13.7926 24.3695 13.0611 24.0661 12.2688 24.0096C11.4765 23.9531 10.6883 24.148 10.0775 24.5515C9.46679 24.9551 9.08355 25.5341 9.01212 26.1614C8.9407 26.7886 9.18693 27.4126 9.69667 27.8961L24.6973 42.1465C24.9787 42.4136 25.3309 42.6286 25.7288 42.7761C26.1267 42.9235 26.5608 43 27.0002 43C27.4395 43 27.8736 42.9235 28.2715 42.7761C28.6694 42.6286 29.0216 42.4136 29.303 42.1465L44.3036 27.8959C44.8132 27.4119 45.0593 26.7876 44.9879 26.1601C44.9165 25.5326 44.5334 24.9531 43.9228 24.549Z" fill="white"/>
<path d="M42.5669 9.50154C41.9958 9.13539 41.2612 8.95911 40.5232 9.01109C39.7852 9.06308 39.1037 9.33913 38.627 9.77911L26.7859 20.7973L14.9446 9.77929C14.4693 9.33759 13.7871 9.06042 13.0483 9.00877C12.3094 8.95711 11.5744 9.13519 11.0048 9.50384C10.4353 9.87248 10.0779 10.4015 10.0113 10.9745C9.9447 11.5475 10.1743 12.1175 10.6497 12.5592L24.6384 25.5774C24.9008 25.8215 25.2292 26.0178 25.6003 26.1526C25.9714 26.2873 26.3761 26.3572 26.7859 26.3572C27.1956 26.3572 27.6003 26.2873 27.9714 26.1526C28.3425 26.0178 28.6709 25.8215 28.9333 25.5774L42.922 12.5591C43.3972 12.1169 43.6267 11.5466 43.5601 10.9733C43.4935 10.4 43.1363 9.87071 42.5669 9.50154Z" fill="white"/>
</svg>
